<svg width="24" height="24" viewBox="0 0 24 24" fill="none" xmlns="http://www.w3.org/2000/svg">
<path d="M6 15.75C6.41421 15.75 6.75 15.4142 6.75 15C6.75 14.5858 6.41421 14.25 6 14.25V15.75ZM6.45695 6.69926L7.14953 6.98706L7.14953 6.98706L6.45695 6.69926ZM17.5431 6.69927L16.8505 6.98706L16.8505 6.98706L17.5431 6.69927ZM18 14.25C17.5858 14.25 17.25 14.5858 17.25 15C17.25 15.4142 17.5858 15.75 18 15.75V14.25ZM10.7115 14.2372C10.8425 13.8442 10.6301 13.4195 10.2372 13.2885C9.84421 13.1575 9.41947 13.3699 9.28849 13.7628L10.7115 14.2372ZM5.28849 20.7628C5.1575 21.1558 5.36987 21.5805 5.76283 21.7115C6.15579 21.8425 6.58053 21.6301 6.71151 21.2372L5.28849 20.7628ZM15.2885 20.7628C15.1575 21.1558 15.3699 21.5805 15.7628 21.7115C16.1558 21.8425 16.5805 21.6301 16.7115 21.2372L15.2885 20.7628ZM15.7115 14.2372C15.8425 13.8442 15.6301 13.4195 15.2372 13.2885C14.8442 13.1575 14.4195 13.3699 14.2885 13.7628L15.7115 14.2372ZM10.2885 20.7628C10.1575 21.1558 10.3699 21.5805 10.7628 21.7115C11.1558 21.8425 11.5805 21.6301 11.7115 21.2372L10.2885 20.7628ZM8.53849 16.0128C8.4075 16.4058 8.61987 16.8305 9.01283 16.9615C9.40579 17.0925 9.83053 16.8801 9.96151 16.4872L8.53849 16.0128ZM13.5385 16.0128C13.4075 16.4058 13.6199 16.8305 14.0128 16.9615C14.4058 17.0925 14.8305 16.8801 14.9615 16.4872L13.5385 16.0128ZM17.4615 18.9872C17.5925 18.5942 17.3801 18.1695 16.9872 18.0385C16.5942 17.9075 16.1695 18.1199 16.0385 18.5128L17.4615 18.9872ZM12.4615 18.9872C12.5925 18.5942 12.3801 18.1695 11.9872 18.0385C11.5942 17.9075 11.1695 18.1199 11.0385 18.5128L12.4615 18.9872ZM7.46151 18.9872C7.5925 18.5942 7.38013 18.1695 6.98717 18.0385C6.59421 17.9075 6.16947 18.1199 6.03849 18.5128L7.46151 18.9872ZM6 14.25C4.20507 14.25 2.75 12.7949 2.75 11H1.25C1.25 13.6234 3.37665 15.75 6 15.75V14.25ZM2.75 11C2.75 9.20507 4.20507 7.75 6 7.75V6.25C3.37665 6.25 1.25 8.37665 1.25 11H2.75ZM7.14953 6.98706C7.93985 5.08514 9.81488 3.75 12 3.75V2.25C9.18787 2.25 6.77911 3.96946 5.76436 6.41147L7.14953 6.98706ZM12 3.75C14.1851 3.75 16.0602 5.08515 16.8505 6.98706L18.2356 6.41147C17.2209 3.96946 14.8121 2.25 12 2.25V3.75ZM18 7.75C19.7949 7.75 21.25 9.20507 21.25 11H22.75C22.75 8.37665 20.6234 6.25 18 6.25V7.75ZM21.25 11C21.25 12.7949 19.7949 14.25 18 14.25V15.75C20.6234 15.75 22.75 13.6234 22.75 11H21.25ZM16.8505 6.98706C17.0471 7.46022 17.5097 7.75 18 7.75V6.25C18.0935 6.25 18.1913 6.30471 18.2356 6.41147L16.8505 6.98706ZM6 7.75C6.49032 7.75 6.95292 7.4602 7.14953 6.98706L5.76436 6.41147C5.80872 6.30471 5.90644 6.25 6 6.25V7.75ZM9.28849 13.7628L8.78849 15.2628L10.2115 15.7372L10.7115 14.2372L9.28849 13.7628ZM8.78849 15.2628L8.53849 16.0128L9.96151 16.4872L10.2115 15.7372L8.78849 15.2628ZM14.2885 13.7628L13.7885 15.2628L15.2115 15.7372L15.7115 14.2372L14.2885 13.7628ZM13.7885 15.2628L13.5385 16.0128L14.9615 16.4872L15.2115 15.7372L13.7885 15.2628ZM15.7885 19.2628L15.2885 20.7628L16.7115 21.2372L17.2115 19.7372L15.7885 19.2628ZM16.0385 18.5128L15.7885 19.2628L17.2115 19.7372L17.4615 18.9872L16.0385 18.5128ZM10.7885 19.2628L10.2885 20.7628L11.7115 21.2372L12.2115 19.7372L10.7885 19.2628ZM11.0385 18.5128L10.7885 19.2628L12.2115 19.7372L12.4615 18.9872L11.0385 18.5128ZM5.78849 19.2628L5.28849 20.7628L6.71151 21.2372L7.21151 19.7372L5.78849 19.2628ZM6.03849 18.5128L5.78849 19.2628L7.21151 19.7372L7.46151 18.9872L6.03849 18.5128Z" fill="#0A0C10"/>
</svg>
